<?xml version="1.0" encoding="utf-8"?>
<!-- Generator: Adobe Illustrator 19.0.0, SVG Export Plug-In . SVG Version: 6.00 Build 0)  -->
<svg version="1.1" id="Layer_1" xmlns="http://www.w3.org/2000/svg" xmlns:xlink="http://www.w3.org/1999/xlink" x="0px" y="0px"
	 width="227.3px" height="50px" viewBox="0 0 227.3 50" style="enable-background:new 0 0 227.3 50;" xml:space="preserve">
<style type="text/css">
	.Drop_x0020_Shadow{fill:none;}
	.Outer_x0020_Glow_x0020_5_x0020_pt{fill:none;}
	.Jive_GS{fill:#A6D0E4;}
	.st0{fill:#FF8600;}
	.st1{fill:#172B4D;}
	.st2{fill:#FFFFFF;}
</style>
<g id="XMLID_1_">
	<path id="XMLID_42_" class="st0" d="M75.8,44.7l-4.7-16h3.2l3,11l3-11l3.2,0l3,11l3-11h3.2l-4.7,16h-3l-3.1-10.8l-3.1,10.8H75.8z"
		/>
	<path class="st0" d="M96.8,45c-0.9,0-1.6-0.2-2.2-0.5c-0.6-0.3-1-0.8-1.4-1.3c-0.3-0.6-0.5-1.2-0.5-1.8c0-0.6,0.1-1.1,0.3-1.5
		c0.2-0.5,0.4-0.9,0.8-1.2c0.4-0.4,0.9-0.7,1.5-0.9c0.4-0.2,1-0.3,1.6-0.4c0.6-0.1,1.3-0.2,2.1-0.4c0.8-0.1,1.6-0.2,2.6-0.4
		l-1.1,0.6c0-0.7-0.2-1.2-0.5-1.6c-0.3-0.3-0.9-0.5-1.7-0.5c-0.4,0-0.9,0.1-1.4,0.3s-0.8,0.6-1,1.1l-2.7-0.9c0.3-1,0.9-1.8,1.7-2.4
		c0.8-0.6,2-0.9,3.4-0.9c1.1,0,2,0.2,2.8,0.5c0.8,0.3,1.4,0.9,1.9,1.7c0.2,0.4,0.4,0.9,0.4,1.3s0.1,0.9,0.1,1.5v7.4h-2.7v-2.5
		l0.4,0.5c-0.6,0.8-1.2,1.4-1.9,1.8C98.7,44.9,97.8,45,96.8,45z M97.4,42.7c0.6,0,1-0.1,1.4-0.3c0.4-0.2,0.7-0.4,0.9-0.7
		c0.2-0.3,0.4-0.5,0.5-0.6c0.2-0.3,0.2-0.7,0.3-1.1c0-0.4,0-0.8,0-1.1l0.9,0.2c-0.9,0.1-1.6,0.3-2.2,0.4c-0.6,0.1-1,0.2-1.3,0.3
		c-0.3,0.1-0.6,0.2-0.9,0.3c-0.3,0.1-0.5,0.2-0.7,0.4c-0.2,0.1-0.3,0.3-0.4,0.4c-0.1,0.2-0.1,0.3-0.1,0.5c0,0.3,0.1,0.5,0.2,0.7
		c0.1,0.2,0.3,0.3,0.6,0.4C96.8,42.6,97.1,42.7,97.4,42.7z"/>
	<path id="XMLID_39_" class="st0" d="M106.5,44.7v-12h2.7v2.9l-0.3-0.4c0.2-0.4,0.4-0.8,0.6-1.1c0.3-0.3,0.6-0.6,1-0.8
		c0.3-0.2,0.6-0.3,0.9-0.4c0.3-0.1,0.7-0.2,1.1-0.2c0.4,0,0.7,0,1.1,0v2.8c-0.3-0.1-0.7-0.1-1.2-0.1c-0.4,0-0.8,0.1-1.2,0.3
		c-0.4,0.2-0.7,0.4-0.9,0.7c-0.2,0.3-0.4,0.6-0.6,1c-0.1,0.4-0.2,0.8-0.2,1.2v6.1H106.5z"/>
	<path class="st0" d="M130.1,44.7v-7.1c0-0.8-0.2-1.4-0.6-1.8c-0.4-0.4-0.9-0.7-1.5-0.7c-0.4,0-0.8,0.1-1.1,0.3
		c-0.3,0.2-0.6,0.5-0.7,0.8c-0.2,0.3-0.3,0.8-0.3,1.2l-1.3-0.8c0-0.8,0.2-1.6,0.6-2.2c0.4-0.6,0.9-1.1,1.6-1.5
		c0.7-0.4,1.4-0.5,2.2-0.5c1.4,0,2.4,0.4,3.1,1.2c0.7,0.8,1.1,1.9,1.1,3.2v7.9H130.1z M115.6,44.7v-12h2.7v4h0.4v8H115.6z
		 M122.9,44.7v-7.1c0-0.8-0.2-1.4-0.6-1.8c-0.4-0.4-0.9-0.7-1.5-0.7c-0.6,0-1.1,0.2-1.5,0.7c-0.4,0.4-0.6,1-0.6,1.7l-1.3-0.9
		c0-0.8,0.2-1.5,0.6-2.1c0.4-0.6,0.9-1.1,1.6-1.5c0.7-0.4,1.4-0.5,2.2-0.5c0.9,0,1.7,0.2,2.3,0.6c0.6,0.4,1.1,0.9,1.3,1.6
		c0.3,0.7,0.4,1.4,0.4,2.2v7.9H122.9z"/>
	<path class="st0" d="M143.3,44.7c-0.8,0.2-1.6,0.2-2.5,0.2c-0.8,0-1.5-0.2-2.1-0.4c-0.6-0.3-1.1-0.7-1.4-1.3
		c-0.3-0.5-0.5-1.1-0.5-1.7c0-0.6,0-1.2,0-1.9V29.3h3v10.1c0,0.5,0,0.9,0,1.3c0,0.4,0.1,0.7,0.2,0.9c0.3,0.4,0.7,0.7,1.3,0.7
		c0.6,0,1.2,0,2-0.1V44.7z M134.7,35v-2.3h8.6V35H134.7z"/>
	<path class="st0" d="M150.9,45c-1.2,0-2.3-0.3-3.3-0.8c-0.9-0.5-1.7-1.3-2.2-2.2c-0.5-0.9-0.8-2-0.8-3.2c0-1.3,0.3-2.5,0.8-3.4
		c0.5-1,1.2-1.7,2.2-2.3c0.9-0.5,2-0.8,3.2-0.8c1.3,0,2.3,0.3,3.2,0.9c0.9,0.6,1.5,1.4,2,2.5c0.4,1.1,0.6,2.3,0.4,3.8h-3v-1.1
		c0-1.2-0.2-2.1-0.6-2.6c-0.4-0.5-1-0.8-1.9-0.8c-1,0-1.8,0.3-2.3,0.9c-0.5,0.6-0.7,1.5-0.7,2.8c0,1.1,0.2,2,0.7,2.6
		c0.5,0.6,1.2,0.9,2.2,0.9c0.6,0,1.1-0.1,1.5-0.4c0.4-0.3,0.7-0.6,1-1.1l3,0.9c-0.5,1.1-1.2,2-2.2,2.6C153.1,44.7,152,45,150.9,45z
		 M146.9,39.5v-2.2h8v2.2H146.9z"/>
	<path class="st0" d="M159.9,44.7v-12c0-0.3,0-0.6,0-1c0-0.4,0.1-0.8,0.2-1.2c0.1-0.4,0.3-0.7,0.6-1.1c0.4-0.4,0.8-0.7,1.2-0.8
		c0.4-0.2,0.9-0.2,1.3-0.2c0.4,0,0.8,0,1,0h1.5v2.5h-1.4c-0.5,0-0.8,0.1-1.1,0.4c-0.2,0.2-0.3,0.5-0.3,0.9v12.7H159.9z M158,35v-2.3
		h7.7V35H158z"/>
	<path class="st0" d="M172.4,45c-1.2,0-2.3-0.3-3.2-0.8c-0.9-0.5-1.6-1.3-2.1-2.2c-0.5-1-0.8-2.1-0.8-3.3c0-1.3,0.3-2.4,0.8-3.3
		c0.5-1,1.2-1.7,2.2-2.2c0.9-0.5,2-0.8,3.2-0.8c1.2,0,2.3,0.3,3.2,0.8c0.9,0.5,1.6,1.3,2.2,2.2c0.5,1,0.8,2,0.8,3.3
		c0,1.2-0.3,2.3-0.8,3.3c-0.5,1-1.2,1.7-2.2,2.2C174.7,44.8,173.6,45,172.4,45z M172.4,42.2c1,0,1.7-0.3,2.2-1
		c0.5-0.7,0.7-1.5,0.7-2.5c0-1.1-0.2-1.9-0.7-2.6c-0.5-0.6-1.2-1-2.2-1c-0.7,0-1.2,0.1-1.6,0.4c-0.4,0.3-0.7,0.7-0.9,1.2
		c-0.2,0.5-0.3,1.1-0.3,1.8c0,1.1,0.2,1.9,0.7,2.6C170.8,41.9,171.5,42.2,172.4,42.2z"/>
	<path class="st0" d="M189.2,44.7V39c0-0.3,0-0.6,0-1c0-0.4-0.1-0.9-0.3-1.3c-0.2-0.4-0.4-0.8-0.8-1.1c-0.3-0.3-0.8-0.4-1.5-0.4
		c-0.3,0-0.5,0-0.8,0.1c-0.3,0.1-0.6,0.2-0.8,0.5c-0.3,0.2-0.5,0.6-0.6,1c-0.2,0.5-0.2,1.1-0.2,1.8l-1.7-0.8c0-1,0.2-1.8,0.6-2.7
		s1-1.5,1.7-2c0.8-0.5,1.8-0.8,2.9-0.8c0.9,0,1.7,0.2,2.3,0.5c0.6,0.3,1.1,0.7,1.4,1.2c0.3,0.5,0.6,1,0.7,1.5c0.1,0.5,0.2,1,0.3,1.4
		c0,0.4,0,0.8,0,1v6.7H189.2z M181,44.7v-12h2.7v4h0.4v8H181z"/>
	<path class="st0" d="M199.8,45c-1.1,0-2.1-0.3-2.9-0.8c-0.8-0.6-1.5-1.3-2-2.3c-0.5-1-0.7-2-0.7-3.2c0-1.2,0.2-2.3,0.7-3.3
		c0.5-1,1.1-1.7,2-2.3c0.9-0.5,1.9-0.8,3-0.8c1.1,0,2.1,0.3,2.9,0.8c0.8,0.6,1.4,1.3,1.8,2.3c0.4,1,0.6,2,0.6,3.2
		c0,1.2-0.2,2.3-0.6,3.2c-0.4,1-1,1.7-1.8,2.3C202,44.8,201,45,199.8,45z M200.3,42.4c0.7,0,1.2-0.2,1.6-0.5
		c0.4-0.3,0.7-0.7,0.9-1.3c0.2-0.5,0.3-1.2,0.3-1.9c0-0.7-0.1-1.4-0.3-1.9c-0.2-0.5-0.5-1-0.9-1.3c-0.4-0.3-0.9-0.5-1.5-0.5
		c-0.7,0-1.2,0.2-1.7,0.5c-0.4,0.3-0.8,0.8-1,1.3c-0.2,0.5-0.3,1.2-0.3,1.8c0,0.7,0.1,1.3,0.3,1.8c0.2,0.5,0.5,1,0.9,1.3
		C199.1,42.2,199.7,42.4,200.3,42.4z M203.1,44.7v-8.2h-0.4v-7.8h3.1v16H203.1z"/>
	<path id="XMLID_22_" class="st0" d="M213.6,45c-1.5,0-2.7-0.3-3.7-1c-0.9-0.7-1.5-1.7-1.7-2.9l3.1-0.5c0.1,0.6,0.4,1,0.8,1.3
		c0.4,0.3,1,0.5,1.7,0.5c0.5,0,1-0.1,1.3-0.3c0.3-0.2,0.4-0.5,0.4-0.9c0-0.2-0.1-0.4-0.2-0.6c-0.1-0.1-0.4-0.3-0.8-0.4
		c-0.4-0.1-1-0.3-1.9-0.6c-1-0.3-1.8-0.5-2.4-0.8c-0.6-0.3-1-0.7-1.3-1.1c-0.3-0.4-0.4-1-0.4-1.6c0-0.8,0.2-1.4,0.6-2
		c0.4-0.6,0.9-1,1.7-1.3c0.7-0.3,1.6-0.5,2.5-0.5c0.9,0,1.8,0.1,2.5,0.4c0.7,0.3,1.3,0.7,1.8,1.2c0.5,0.5,0.7,1.2,0.8,1.9l-3.1,0.6
		c-0.1-0.4-0.2-0.8-0.6-1.1c-0.3-0.3-0.8-0.4-1.4-0.5c-0.6,0-1,0-1.3,0.2c-0.3,0.2-0.5,0.5-0.5,0.8c0,0.2,0.1,0.4,0.2,0.5
		c0.1,0.1,0.4,0.3,0.9,0.4c0.5,0.1,1.2,0.3,2.1,0.6c0.9,0.2,1.6,0.5,2.2,0.8c0.6,0.3,1,0.7,1.2,1.1c0.3,0.4,0.4,1,0.4,1.6
		c0,1.2-0.4,2.2-1.3,2.9C216.4,44.7,215.2,45,213.6,45z"/>
	<path id="XMLID_21_" class="st1" d="M71.1,21.3v-16h2l8.4,12.5V5.3h2v16h-2L73.1,8.8v12.5H71.1z"/>
	<path class="st1" d="M90,21.7c-0.9,0-1.7-0.2-2.3-0.5c-0.6-0.3-1.1-0.8-1.4-1.3c-0.3-0.5-0.5-1.1-0.5-1.8c0-0.6,0.1-1.2,0.4-1.6
		c0.2-0.5,0.6-0.9,1-1.2c0.4-0.3,1-0.6,1.6-0.7c0.6-0.2,1.2-0.3,1.9-0.4c0.7-0.1,1.4-0.2,2.2-0.3c0.7-0.1,1.4-0.2,2-0.3L94.3,14
		c0-1.1-0.2-1.9-0.6-2.4c-0.4-0.5-1.2-0.8-2.3-0.8c-0.7,0-1.4,0.2-1.9,0.5c-0.5,0.3-0.9,0.9-1.1,1.6l-1.9-0.6
		c0.3-1.1,0.9-1.9,1.7-2.5C88.9,9.3,90,9,91.3,9c1.1,0,2,0.2,2.8,0.6c0.8,0.4,1.4,1,1.7,1.8c0.2,0.4,0.3,0.8,0.3,1.2
		c0,0.4,0.1,0.9,0.1,1.4v7.4h-1.8v-2.9l0.4,0.3c-0.5,1-1.1,1.7-1.9,2.2C92.1,21.4,91.2,21.7,90,21.7z M90.3,20
		c0.7,0,1.3-0.1,1.8-0.4c0.5-0.3,1-0.6,1.3-1c0.3-0.4,0.5-0.9,0.6-1.4c0.1-0.4,0.2-0.8,0.2-1.2c0-0.5,0-0.8,0-1.1l0.7,0.3
		c-0.6,0.1-1.3,0.2-1.9,0.3c-0.6,0.1-1.2,0.2-1.8,0.3c-0.6,0.1-1.1,0.2-1.5,0.3c-0.3,0.1-0.6,0.2-0.9,0.4c-0.3,0.2-0.5,0.4-0.7,0.6
		c-0.2,0.3-0.3,0.6-0.3,0.9c0,0.3,0.1,0.6,0.2,0.9c0.2,0.3,0.4,0.5,0.8,0.7C89.3,19.9,89.7,20,90.3,20z"/>
	<path class="st1" d="M105.8,21.3c-0.7,0.1-1.4,0.2-2.1,0.2c-0.7,0-1.3-0.2-1.9-0.4c-0.5-0.3-1-0.7-1.2-1.2c-0.2-0.5-0.4-1-0.4-1.4
		c0-0.5,0-1,0-1.7V6h2v10.7c0,0.5,0,0.9,0,1.3c0,0.3,0.1,0.6,0.2,0.9c0.3,0.5,0.7,0.8,1.3,0.8c0.6,0.1,1.3,0.1,2.1-0.1V21.3z
		 M97.8,10.9V9.3h8.1v1.6H97.8z"/>
	<path class="st1" d="M108.5,7.2v-2h2v2H108.5z M108.5,21.3v-12h2v12H108.5z"/>
	<path class="st1" d="M118.9,21.7c-1.2,0-2.2-0.3-3.1-0.8c-0.9-0.5-1.5-1.3-2-2.2c-0.5-1-0.7-2.1-0.7-3.3c0-1.3,0.2-2.4,0.7-3.3
		c0.5-1,1.1-1.7,2-2.2c0.9-0.5,1.9-0.8,3.1-0.8c1.2,0,2.2,0.3,3.1,0.8c0.9,0.5,1.5,1.3,2,2.2c0.5,1,0.7,2,0.7,3.3
		c0,1.3-0.2,2.4-0.7,3.3c-0.5,1-1.1,1.7-2,2.2C121.2,21.4,120.1,21.7,118.9,21.7z M118.9,19.8c1.2,0,2.2-0.4,2.8-1.2
		c0.6-0.8,0.9-1.9,0.9-3.2c0-1.4-0.3-2.4-0.9-3.2c-0.6-0.8-1.5-1.2-2.8-1.2c-0.8,0-1.5,0.2-2.1,0.6c-0.5,0.4-0.9,0.9-1.2,1.6
		c-0.3,0.7-0.4,1.4-0.4,2.3c0,1.4,0.3,2.4,0.9,3.3C116.8,19.4,117.7,19.8,118.9,19.8z"/>
	<path class="st1" d="M135.8,21.3v-6c0-0.6-0.1-1.1-0.2-1.6c-0.1-0.5-0.3-1-0.5-1.4c-0.2-0.4-0.6-0.8-1-1c-0.4-0.2-0.9-0.4-1.6-0.4
		c-0.5,0-1,0.1-1.4,0.3c-0.4,0.2-0.7,0.4-1,0.8c-0.3,0.3-0.5,0.8-0.7,1.3c-0.2,0.5-0.2,1.1-0.2,1.8l-1.3-0.4c0-1.2,0.2-2.2,0.6-3
		c0.4-0.8,1-1.5,1.8-1.9C131.1,9.2,132,9,133,9c0.8,0,1.4,0.1,2,0.4c0.5,0.2,1,0.6,1.4,1c0.4,0.4,0.6,0.9,0.9,1.4
		c0.2,0.5,0.4,1,0.4,1.5c0.1,0.5,0.1,1,0.1,1.5v6.6H135.8z M127.2,21.3v-12h1.8v3.2h0.2v8.8H127.2z"/>
	<path class="st1" d="M144.1,21.7c-0.9,0-1.7-0.2-2.3-0.5c-0.6-0.3-1.1-0.8-1.4-1.3c-0.3-0.5-0.5-1.1-0.5-1.8c0-0.6,0.1-1.2,0.4-1.6
		c0.2-0.5,0.6-0.9,1-1.2c0.4-0.3,1-0.6,1.6-0.7c0.6-0.2,1.2-0.3,1.9-0.4c0.7-0.1,1.4-0.2,2.2-0.3c0.7-0.1,1.4-0.2,2-0.3l-0.7,0.4
		c0-1.1-0.2-1.9-0.6-2.4c-0.4-0.5-1.2-0.8-2.3-0.8c-0.7,0-1.4,0.2-1.9,0.5c-0.5,0.3-0.9,0.9-1.1,1.6l-1.9-0.6
		c0.3-1.1,0.9-1.9,1.7-2.5c0.8-0.6,1.9-0.9,3.3-0.9c1.1,0,2,0.2,2.8,0.6c0.8,0.4,1.4,1,1.7,1.8c0.2,0.4,0.3,0.8,0.3,1.2
		c0,0.4,0.1,0.9,0.1,1.4v7.4h-1.8v-2.9l0.4,0.3c-0.5,1-1.1,1.7-1.9,2.2C146.3,21.4,145.3,21.7,144.1,21.7z M144.4,20
		c0.7,0,1.3-0.1,1.8-0.4c0.5-0.3,1-0.6,1.3-1c0.3-0.4,0.5-0.9,0.6-1.4c0.1-0.4,0.2-0.8,0.2-1.2c0-0.5,0-0.8,0-1.1l0.7,0.3
		c-0.6,0.1-1.3,0.2-1.9,0.3c-0.6,0.1-1.2,0.2-1.8,0.3c-0.6,0.1-1.1,0.2-1.5,0.3c-0.3,0.1-0.6,0.2-0.9,0.4c-0.3,0.2-0.5,0.4-0.7,0.6
		c-0.2,0.3-0.3,0.6-0.3,0.9c0,0.3,0.1,0.6,0.2,0.9c0.2,0.3,0.4,0.5,0.8,0.7C143.4,19.9,143.8,20,144.4,20z"/>
	<path class="st1" d="M156.6,21.7c-0.9,0-1.7-0.2-2.3-0.5c-0.6-0.3-1.1-0.8-1.4-1.3c-0.3-0.5-0.5-1.1-0.5-1.8c0-0.6,0.1-1.2,0.4-1.6
		c0.2-0.5,0.6-0.9,1-1.2c0.4-0.3,1-0.6,1.6-0.7c0.6-0.2,1.2-0.3,1.9-0.4c0.7-0.1,1.4-0.2,2.2-0.3c0.7-0.1,1.4-0.2,2-0.3l-0.7,0.4
		c0-1.1-0.2-1.9-0.6-2.4c-0.4-0.5-1.2-0.8-2.3-0.8c-0.7,0-1.4,0.2-1.9,0.5c-0.5,0.3-0.9,0.9-1.1,1.6l-1.9-0.6
		c0.3-1.1,0.9-1.9,1.7-2.5c0.8-0.6,1.9-0.9,3.3-0.9c1.1,0,2,0.2,2.8,0.6c0.8,0.4,1.4,1,1.7,1.8c0.2,0.4,0.3,0.8,0.3,1.2
		c0,0.4,0.1,0.9,0.1,1.4v7.4h-1.8v-2.9l0.4,0.3c-0.5,1-1.1,1.7-1.9,2.2C158.8,21.4,157.8,21.7,156.6,21.7z M156.9,20
		c0.7,0,1.3-0.1,1.9-0.4c0.5-0.3,1-0.6,1.3-1c0.3-0.4,0.5-0.9,0.6-1.4c0.1-0.4,0.2-0.8,0.2-1.2c0-0.5,0-0.8,0-1.1l0.7,0.3
		c-0.6,0.1-1.3,0.2-1.9,0.3c-0.6,0.1-1.2,0.2-1.8,0.3c-0.6,0.1-1.1,0.2-1.5,0.3c-0.3,0.1-0.6,0.2-0.9,0.4c-0.3,0.2-0.5,0.4-0.7,0.6
		c-0.2,0.3-0.3,0.6-0.3,0.9c0,0.3,0.1,0.6,0.2,0.9c0.2,0.3,0.4,0.5,0.8,0.7C155.9,19.9,156.4,20,156.9,20z"/>
	<path id="XMLID_6_" class="st1" d="M166,21.3V5h2v16.4H166z"/>
	<path id="XMLID_5_" class="st1" d="M57.7,25c0,13.5-11,24.5-24.5,24.5c-13.5,0-24.5-11-24.5-24.5c0-13.5,11-24.5,24.5-24.5
		C46.7,0.5,57.7,11.5,57.7,25z"/>
	<path class="st0" d="M43.3,17.6l-10-7.4c-0.4-0.3-0.9-0.3-1.3,0l-10,7.4c-0.3,0.2-0.5,0.5-0.5,0.9v19.1c0,0.6,0.5,1.1,1.1,1.1h20
		c0.6,0,1.1-0.5,1.1-1.1V18.5C43.8,18.1,43.6,17.8,43.3,17.6z M41.6,36.4H23.7V19l8.9-6.6l8.9,6.6V36.4z"/>
	<path id="XMLID_2_" class="st2" d="M41.6,34.5c0,0.6,0.5,1.1,1.1,1.1s1.1-0.5,1.1-1.1v-5.6h5.6c0.6,0,1.1-0.5,1.1-1.1
		c0-0.6-0.5-1.1-1.1-1.1h-5.6v-5.6c0-0.6-0.5-1.1-1.1-1.1s-1.1,0.5-1.1,1.1v5.6H36c-0.6,0-1.1,0.5-1.1,1.1c0,0.6,0.5,1.1,1.1,1.1
		h5.6V34.5z"/>
</g>
</svg>
